<svg xmlns="http://www.w3.org/2000/svg" width="79.938" height="65.96" viewBox="0 0 79.938 65.96">
  <g id="Group_1050" data-name="Group 1050" transform="translate(0.571 0.52)">
    <path id="Path_297" data-name="Path 297" d="M357.268,428.156a.717.717,0,0,0-.519-.87.7.7,0,0,0-.265-.017,51.01,51.01,0,0,0-9.909,1.6c2.045-2.5,4.159-4.979,6.007-7.621a.734.734,0,0,0,.548-1.343c-8.407-4.624-17.039-8.859-25.548-13.276a.681.681,0,0,0-.492-.069c-.105-.666-.946-1.2-1.448-.528-2.278,3.085-4.2,6.44-6.452,9.548a.881.881,0,0,0-.233.059l-.467.21a.774.774,0,0,0-.013-.889c-1.871-2.886-3.693-5.8-5.658-8.617a.866.866,0,0,0-1.553.28.745.745,0,0,0-.935-.4,177.064,177.064,0,0,0-28,11.98c-.958.525-.069,1.94.889,1.448l.561-.292a.688.688,0,0,0,.059.782c2.114,2.806,4.348,5.54,6.532,8.287.666.853,2.127-.023,1.448-.889-2.221-2.829-4.395-5.675-6.673-8.449a.7.7,0,0,0-.362-.233,199.7,199.7,0,0,1,26.026-11.055.767.767,0,0,0,.538-.643l.036.059c1.789,2.942,3.716,5.786,5.6,8.659a.843.843,0,0,0,.561.374c-8.508,3.741-16.77,8.2-25.08,12.3a.8.8,0,0,0-.328.292.768.768,0,0,0-.713-.118c-4.079,1.309-8.228,2.488-12.236,3.993a.881.881,0,0,0-.584.689.745.745,0,0,0,.156,1.04.632.632,0,0,0,.114.069c4.336,2.373,8.695,4.687,13.031,7.035a113.647,113.647,0,0,0-.21,15.578.778.778,0,0,0,.7.748.66.66,0,0,0,.071.933.624.624,0,0,0,.2.118,173.53,173.53,0,0,1,24.1,11.583c.748.445,1.379-.408,1.11-1.051,4.359-1.707,8.741-3.39,13.008-5.33,2.186-.992,4.348-2.056,6.427-3.237a26.7,26.7,0,0,1,7.28-3.46.746.746,0,0,0,.584-.807.881.881,0,0,0,.046-.233,147.2,147.2,0,0,0,.958-21.017l-.013-.036a77.9,77.9,0,0,0,10.822-6.324.747.747,0,0,0,.282-.853Zm-30.609-20.406a1.007,1.007,0,0,0,.21.164c8.018,4.172,15.973,8.508,24.052,12.541-2.419,2.732-4.569,5.75-6.824,8.617-7.5-4.592-15.462-8.577-23.2-12.785a62.311,62.311,0,0,0,5.761-8.531Zm-6.919,9.689c7.6,4.2,15.147,8.474,22.778,12.621q-6.223,2.875-12.423,5.773a92.274,92.274,0,0,0-11.967,6.158c.866-8.146.9-16.49,1.145-24.672h.013a.911.911,0,0,0,.456.118Zm-2.127.771c-.279,7.854-.994,15.719-1.145,23.573a149.572,149.572,0,0,1-22.942-11.944c7.987-3.869,16.234-7.467,24.088-11.629Zm-36.17,15.742c3.518-1.1,6.988-2.383,10.471-3.573l.069-.036a.831.831,0,0,0,.374.7,119.332,119.332,0,0,0,23.245,11.99c-3.237,1.484-6.66,2.829-9.723,4.624l-.013.013a279.637,279.637,0,0,0-24.426-13.72Zm35.1,10.834c-.2,7.713-.759,15.521-.631,23.245a140.712,140.712,0,0,0-22.465-10.494,1.1,1.1,0,0,0-.269-.059.816.816,0,0,0,.118-.387c.28-4.861.105-9.758.269-14.643,3.993,2.186,7.986,4.414,11.9,6.768a.676.676,0,0,0,.689.034.893.893,0,0,0,.42-.034c3.447-1.3,6.742-3.167,10.063-4.792a.72.72,0,0,0-.095.362Zm27.078,11.091A13.626,13.626,0,0,0,339,457.83c-2.291,1.379-4.592,2.688-7,3.857-4.674,2.268-9.536,4.126-14.374,6.03.5-7.526.374-15.181.549-22.72,4.021-.387,7.97,1.635,11.931.408a.779.779,0,0,0,.385-1.274,96.54,96.54,0,0,1,14-7.957c-.233,6.591-.387,13.123-.876,19.7Zm-15.088-12.27a.827.827,0,0,0-.269.374c-2.757.151-5.464-.666-8.228-.782,3.67-1.929,7.27-3.993,11.032-5.784q6.68-3.19,13.369-6.335a.719.719,0,0,0,.771-.246.845.845,0,0,0,.515.023,78.148,78.148,0,0,1,8.169-1.578c-8.195,5.246-17.625,8.331-25.361,14.327Z" transform="translate(-278.455 -405.721)" fill="#131416" stroke="rgba(0,0,0,0)" stroke-width="1" fill-rule="evenodd"/>
  </g>
</svg>
